<svg width="250" height="250" viewBox="0 0 250 250" fill="none" xmlns="http://www.w3.org/2000/svg">
<g clip-path="url(#clip0_678_7)">
<path d="M119.836 249.425C133.262 249.675 149.014 252.1 161.165 244.924C162.94 243.874 164.44 241.674 164.265 239.524C162.59 220.747 163.89 201.82 163.465 182.993C163.365 178.568 163.19 174.142 162.815 169.742C162.44 165.341 161.84 160.766 162.415 156.34C162.765 153.59 163.665 149.465 166.29 148.99C169.541 148.39 174.141 149.29 177.767 149.24C180.517 149.19 183.067 147.315 183.792 144.639C187.618 130.463 189.868 114.386 187.517 99.7598C186.342 92.4091 180.917 88.5587 173.741 88.1587C165.915 87.7336 158.04 87.8836 150.214 87.7586L156.464 94.0092C155.764 86.3585 154.489 77.1576 158.59 70.2069C160.015 67.7816 162.34 65.8314 164.965 64.8063C168.441 63.4812 171.966 64.8063 175.466 63.2312C179.692 61.331 181.892 57.5806 182.567 53.1302C183.292 48.2547 183.842 43.3792 184.092 38.4787C184.592 28.6027 183.867 18.7517 182.342 9.00074C182.017 6.95053 179.892 5.10035 177.967 4.6253C159.64 0.124853 138.013 -4.07557 121.211 7.32557C106.709 17.1766 99.6587 35.2284 97.8585 52.03C96.6084 63.6562 97.3085 75.4074 97.1334 87.0585L103.384 80.8079C92.1079 81.358 80.8568 81.908 69.5807 82.4831C67.1054 82.6081 63.9801 84.3083 63.5551 87.0836C62.23 95.9844 61.4299 104.96 61.5299 113.986C61.6049 122.012 61.6799 131.063 64.0301 138.814C66.5304 147.065 73.031 151.165 81.4069 151.54C89.7827 151.915 98.8336 150.69 107.334 149.465L99.4337 143.439C99.7087 165.866 100.009 188.294 100.284 210.721C100.409 219.547 99.7087 228.848 103.009 237.249C106.309 245.649 112.46 251.025 121.511 249.225C124.836 248.575 126.736 244.624 125.886 241.524C124.936 238.074 121.511 236.498 118.186 237.149C119.061 236.974 117.11 237.199 118.186 237.249C117.11 237.199 118.236 237.499 117.385 236.974C116.835 236.649 116.435 236.123 115.96 235.398C114.485 233.073 113.71 230.273 113.235 227.398C112.735 224.297 112.91 220.322 112.86 216.872C112.785 211.946 112.735 206.996 112.66 202.07C112.41 182.518 112.16 162.991 111.91 143.439C111.86 138.989 107.985 136.839 104.009 137.414C97.3085 138.389 90.5078 138.964 83.7571 139.064C81.8819 139.089 78.9816 139.364 77.4315 138.014C75.8813 136.664 75.5813 133.713 75.2813 131.813C73.2311 118.262 73.5811 103.96 75.6313 90.4339L69.6057 95.0343C80.8818 94.4843 92.1329 93.9342 103.409 93.3592C106.834 93.1842 109.61 90.6339 109.66 87.1086C109.91 70.1069 107.384 51.0049 114.885 35.1034C117.711 29.1278 120.936 23.6272 125.936 19.3518C130.212 15.7264 136.337 13.6012 142.438 12.8011C153.314 11.351 164.165 14.1263 174.641 16.7015L170.266 12.3261C171.716 21.552 172.066 30.9529 171.466 40.2789C171.216 44.3293 170.791 48.5047 170.016 52.3801C170.116 51.855 170.416 51.83 170.716 51.83C170.241 51.83 169.341 51.705 168.716 51.705C166.79 51.655 164.74 51.93 162.89 52.4051C154.939 54.4803 148.839 60.5809 145.863 68.1067C142.613 76.3325 143.188 85.4084 143.963 94.0342C144.263 97.4346 146.563 100.235 150.214 100.285C156.789 100.385 163.365 100.51 169.966 100.61C171.466 100.61 173.766 100.235 175.191 100.935C174.691 100.51 174.591 100.385 174.866 100.51C175.066 101.06 175.216 101.635 175.316 102.21C175.516 103.285 175.491 104.46 175.566 105.56C176.216 117.662 174.891 129.638 171.741 141.339L177.767 136.739C173.066 136.814 168.391 135.963 163.715 136.789C158.64 137.689 154.839 141.039 152.664 145.614C147.964 155.515 150.289 166.466 150.764 176.918C151.714 197.77 149.914 218.697 151.764 239.499L154.864 234.098C150.389 236.749 145.038 237.149 139.963 237.274C133.262 237.449 126.561 237.024 119.861 236.899C111.81 236.749 111.81 249.25 119.861 249.4L119.836 249.425Z" fill="white"/>
</g>
<defs>
<clipPath id="clip0_678_7">
<rect width="126.938" height="250" fill="white" transform="translate(61.5312)"/>
</clipPath>
</defs>
</svg>
