<svg width="250" height="250" viewBox="0 0 250 250" fill="none" xmlns="http://www.w3.org/2000/svg">
<g clip-path="url(#clip0_678_8)">
<path d="M203.78 17.5521C175.875 8.09113 146.728 2.42089 117.325 0.700711C93.3383 -0.732775 65.8791 -1.17875 44.6954 11.9456C22.2056 25.8982 16.1531 51.4143 13.318 75.9747C11.6615 90.3414 10.3554 104.74 8.89009 119.107C7.42475 133.473 5.73642 148.159 5.95941 162.748C6.40538 187.532 13.4772 214.226 33.2912 230.727C43.8353 239.488 55.8447 243.31 69.3832 244.521C84.1322 245.827 98.9767 246.337 113.758 247.197C128.538 248.057 143.924 249.044 159.024 249.841C173.008 250.573 186.993 249.841 199.512 242.96C222.002 230.664 233.533 205.434 237.674 181.193C240.127 166.794 240.764 152.172 241.561 137.615C242.357 123.057 243.345 107.957 243.886 93.1128C244.842 68.0108 240.892 38.7677 216.841 25.0063C211.489 21.9482 205.724 20.3554 199.607 19.9094C195.307 19.5909 191.644 23.7958 191.644 27.8732C191.644 32.4604 195.307 35.5185 199.607 35.837C208.495 36.506 215.885 43.0363 220.409 50.2675C226.525 60.047 227.959 71.6742 228.118 82.9828C228.277 96.2664 227.099 109.582 226.398 122.802C225.697 136.022 225.187 149.624 224.009 163.003C222.065 185.111 216.714 208.492 199.353 223.751C191.102 231.014 181.004 233.977 170.173 234.2C156.603 234.486 142.905 233.021 129.398 232.225C115.892 231.428 101.716 230.6 87.8592 229.804C76.041 229.103 62.6299 229.804 51.831 224.229C33.4505 214.768 24.4992 193.616 22.5241 173.961C21.1862 160.837 22.0463 147.585 23.2887 134.493C24.5629 120.986 25.9964 107.479 27.3661 93.9729C29.4367 73.6174 29.7234 48.1332 44.7272 32.333C59.1895 17.1062 82.5394 15.9912 102.194 16.2142C128.73 16.5009 155.106 20.228 180.717 27.2361C187.056 28.9563 193.3 30.8995 199.512 33.0338C209.228 36.3467 213.401 20.9606 203.749 17.6796L203.78 17.5521Z" fill="white"/>
<path d="M145.068 92.3162C126.146 87.1556 102.605 83.0144 86.9321 98.1457C78.6815 106.109 75.496 117.45 74.1262 128.504C72.9157 138.315 73.2343 148.827 76.4517 158.257C79.892 168.323 86.5179 177.019 96.2975 181.575C106.65 186.385 118.246 186.735 129.331 184.792C149.241 181.32 168.004 168.036 174.884 148.573C181.765 129.109 174.088 103.816 154.943 94.4186C151.089 92.5391 146.342 93.3674 144.049 97.2856C142.01 100.79 143.029 106.269 146.915 108.18C158.256 113.755 163.257 127.389 160.9 139.335C158.065 153.733 145.418 163.799 131.88 167.813C118.341 171.827 99.5786 171.285 92.6979 156.218C89.7672 149.815 89.2256 142.488 89.4805 135.544C89.7672 127.707 91.0414 119.106 95.5648 112.481C105.344 98.082 127.102 103.88 140.863 107.639C150.77 110.346 154.975 94.992 145.1 92.2843L145.068 92.3162Z" fill="white"/>
<path d="M184.954 69.2532V72.598C184.922 73.6811 185.145 74.7323 185.655 75.6561C185.974 76.6436 186.515 77.5037 187.311 78.2045C188.044 78.969 188.872 79.5424 189.86 79.861C190.816 80.3706 191.835 80.5936 192.918 80.5618L195.02 80.2751C196.358 79.8928 197.537 79.2239 198.524 78.2363L199.767 76.6117C200.5 75.3694 200.85 74.0315 200.85 72.598V69.2532C200.882 68.1701 200.659 67.1189 200.149 66.1951C199.831 65.2076 199.289 64.3475 198.493 63.6466C197.76 62.8821 196.932 62.3087 195.944 61.9902C194.989 61.4805 193.969 61.2575 192.886 61.2894L190.784 61.5761C189.446 61.9583 188.267 62.6273 187.28 63.6148L186.037 65.2394C185.305 66.4818 184.954 67.8197 184.954 69.2532Z" fill="white"/>
</g>
<defs>
<clipPath id="clip0_678_8">
<rect width="238.086" height="250" fill="white" transform="translate(5.95703)"/>
</clipPath>
</defs>
</svg>
