<svg width="250" height="250" viewBox="0 0 250 250" fill="none" xmlns="http://www.w3.org/2000/svg">
<g clip-path="url(#clip0_678_9)">
<path d="M45.0719 25.3543C40.8121 18.7734 33.3894 18.1612 26.6809 21.1966C20.5591 23.9769 16.3759 29.1039 12.8813 34.6646C5.45861 46.5001 2.01509 62.5954 11.0448 74.584C19.2582 85.5268 34.2312 89.812 47.1125 85.4757C59.9939 81.1394 71.1662 69.406 74.4567 55.8359C76.3697 47.8775 75.6555 38.9499 70.7836 32.1393C66.1922 25.7114 59.1521 21.3241 51.0917 21.4262C43.0313 21.5282 42.8783 34.282 51.0917 34.18C54.4077 34.1544 57.5961 35.8124 59.7643 38.5928C62.3661 41.9343 63.2078 46.2706 62.5446 50.6324C61.1672 59.5855 54.8923 67.5694 47.0105 71.7782C39.5878 75.7318 30.7366 75.4002 24.1302 70.1202C17.5237 64.8401 17.2431 55.7849 20.3806 47.8775C22.1916 43.3117 25.0229 38.3887 28.645 35.0217C29.5378 34.2055 29.8439 34.0014 30.8897 33.3892C31.2978 33.1341 31.7314 32.9046 32.1651 32.7005C32.9558 32.3179 32.4457 32.573 32.9048 32.4199C33.4404 32.2669 33.9761 32.1393 34.5118 32.0118L34.0781 32.1138C34.7668 32.1393 34.8944 32.1138 34.4097 32.0628L34.1547 32.0118C34.8689 32.2159 34.8944 32.2159 34.2312 31.9608C33.3384 31.3996 34.5373 32.5475 34.0781 31.8333C38.5165 38.6948 49.5613 32.3179 45.0974 25.4053L45.0719 25.3543Z" fill="white"/>
<path d="M13.6958 127.972C22.8785 128.584 32.0613 129.196 41.2695 129.834C43.9478 130.012 47.3913 129.859 49.3299 131.977C50.6563 133.43 51.2175 136.032 51.4726 138.149C52.4929 146.184 51.3195 154.806 50.9624 162.866C50.5543 171.947 50.0696 181.053 49.4575 190.134C49.1769 194.572 48.8708 199.011 48.5392 203.423C48.3096 206.331 48.7688 210.514 46.2435 212.504C44.0498 214.239 40.4788 214.953 37.877 215.718C34.612 216.687 31.245 217.606 27.827 217.784C21.5266 218.116 16.9353 215.692 15.0987 209.443C12.9051 202.02 13.1856 193.705 12.9561 186.053C12.3439 165.545 13.3897 144.985 15.9915 124.63C16.4251 121.212 12.752 118.253 9.61459 118.253C5.81395 118.253 3.67132 121.187 3.23769 124.63C0.508373 145.572 -0.511931 166.769 0.227789 187.915C0.53388 196.919 0.304312 206.969 3.69682 215.463C7.29339 224.442 14.8181 229.824 24.46 230.487C32.8265 231.074 41.9837 228.344 49.585 225.028C53.8703 223.166 57.4924 220.105 59.3289 215.744C61.2675 211.152 61.1144 205.77 61.4715 200.873C62.2623 190.108 62.9255 179.344 63.4356 168.554C63.8948 158.964 64.9406 149.041 64.3029 139.45C63.6652 129.859 59.584 120.192 49.2024 117.973C43.5652 116.774 37.5709 116.825 31.8317 116.442L13.6703 115.218C10.2268 114.988 7.29339 118.304 7.29339 121.595C7.29339 125.243 10.2268 127.742 13.6703 127.972H13.6958Z" fill="white"/>
<path d="M95.2181 84.8639C93.9172 115.626 92.6163 146.363 91.3154 177.125C90.9838 184.701 90.6777 192.276 90.3461 199.878C90.04 206.918 89.7595 214.06 95.5242 219.161C99.988 223.09 105.931 224.391 111.645 225.334C118.124 226.406 124.756 227.196 131.235 225.64C143.938 222.579 149.702 210.923 150.212 198.781C150.672 187.966 147.738 177.457 147.993 166.641C148.197 157.561 149.957 147.281 156.003 140.292C162.048 133.303 170.797 131.313 179.342 134.145C183.474 135.522 187.581 138.328 190.132 141.822C194.264 147.485 194.468 154.857 194.545 161.718C194.698 178.834 194.621 195.975 194.647 213.091C194.647 215.896 196.636 218.498 199.34 219.238C209.645 222.069 220.945 224.875 231.454 221.33C241.402 217.963 248.442 210.438 249.743 199.878C250.406 194.572 249.896 189.19 249.641 183.859C249.386 178.222 249.131 172.559 248.85 166.922C248.34 155.852 248.009 144.781 247.218 133.737C245.815 114.835 241.912 94.2252 227.118 80.9613C215.41 70.4776 199.085 65.3251 183.449 66.779C174.496 67.6208 165.67 70.2481 158.145 75.2986C156.258 76.574 154.421 77.9769 152.712 79.4818C152.661 79.5328 150.417 81.3949 150.391 81.3184C150.289 81.0888 154.039 82.4917 153.707 82.4662C154.039 83.1549 154.039 83.0529 153.707 82.1601L153.554 81.3694C152.891 76.0128 153.299 69.6614 153.171 64.0497C153.095 60.7337 150.315 57.4943 146.794 57.6728C139.703 58.0299 132.587 58.4125 125.496 58.7697C118.787 59.1268 111.568 58.7697 105.013 60.4021C99.1208 61.8306 94.1468 65.9628 93.2795 72.1611C92.4633 78.0024 95.3966 83.7926 101.289 85.4251C109.222 87.6188 112.589 75.3241 104.681 73.1304C105.472 73.36 105.447 74.2528 105.982 74.6864C105.6 74.3803 105.804 74.1507 105.855 73.6916C105.804 74.2018 106.314 73.411 105.982 73.5896C105.192 74.0232 107.385 72.9264 106.824 73.1559C109.961 71.7785 114.017 72.1101 117.333 71.9316C127.154 71.4214 136.949 70.9113 146.769 70.4011L140.392 64.0242C140.52 69.3553 140.622 74.6864 140.775 80.0175C140.902 84.4558 141.718 89.2768 145.647 91.9806C154.243 97.9493 161.359 87.7718 168.323 84.0477C180.005 77.8238 194.774 77.7728 207.018 83.0274C212.885 85.5526 218.394 89.5063 222.501 94.5823C227.832 101.189 230.689 109.657 232.398 117.896C234.286 127.002 234.668 136.313 235.102 145.572C235.612 156.668 236.122 167.738 236.632 178.834C236.913 184.726 237.525 190.746 237.244 196.638C237.066 200.77 235.714 204.393 232.245 206.841C223.572 213.014 211.966 209.469 202.682 206.918L207.375 213.065C207.35 197.557 207.324 182.048 207.273 166.514C207.273 153.581 206.839 140.088 197.044 130.421C189.545 123.023 178.5 119.044 168.017 120.268C156.921 121.544 147.509 128.405 142.076 138.098C136.744 147.613 135.061 158.913 135.214 169.702C135.367 180.492 138.76 191.205 137.204 201.842C136.642 205.744 135.163 209.571 131.745 211.764C127.103 214.774 120.675 213.958 115.522 213.116C112.13 212.581 105.345 212.096 103.432 209.035C102.08 206.816 102.947 202.913 103.049 200.49L103.559 188.476C105.013 153.939 106.492 119.401 107.946 84.8639C108.303 76.6505 95.5497 76.676 95.1926 84.8639H95.2181Z" fill="white"/>
</g>
<defs>
<clipPath id="clip0_678_9">
<rect width="250" height="211.126" fill="white" transform="translate(0 19.4368)"/>
</clipPath>
</defs>
</svg>
